{
  "title": "The Secret Life of Pets 2016 1080p HDRIP x264 AC3 TiTAN",
  "uid": 15728341,
  "size": 3684709935,
  "categoryP": "video",
  "categoryS": "hd___movies",
  "magnet": "?xt=urn:btih:13944f2d2379b376f15f58291cddb5b2d3ac3535&amp;dn=The+Secret+Life+of+Pets+2016+1080p+HDRIP+x264+AC3+TiTAN&amp;tr=udp%3A%2F%2Ftracker.leechers-paradise.org%3A6969&amp;tr=udp%3A%2F%2Fzer0day.ch%3A1337&amp;tr=udp%3A%2F%2Fopen.demonii.com%3A1337&amp;tr=udp%3A%2F%2Ftracker.coppersurfer.tk%3A6969&amp;tr=udp%3A%2F%2Fexodus.desync.com%3A6969",
  "seeders": 210,
  "leechers": 18,
  "uploader": "makintos13",
  "files": 2,
  "time": 1472749514,
  "description": "The Secret Life of Pets 2016 1080p HDRIP x264 AC3 TiTAN\r\n\r\nScreens:\r\n \nhttps://imgmak.com/aAk\r\n \nhttps://imgmak.com/aAm\r\n \nhttps://imgmak.com/aAu\r\n \nhttps://imgmak.com/aA5\r\n \nhttps://imgmak.com/aA1\r\n\r\n\r\nSource: 1080p Showscen \r\n\r\nGeneral\r\n\r\nFormat                                   : Matroska\r\nFormat version                           : Version 2\r\nFile size                                : 3.43 GiB\r\nDuration                                 : 1h 26mn\r\nOverall bit rate mode                    : Variable\r\nOverall bit rate                         : 5 684 Kbps\r\n\r\nVideo\r\nID                                       : 1\r\nFormat                                   : AVC\r\nFormat/Info                              : Advanced Video Codec\r\nFormat profile                           :   \r\nFormat settings, CABAC                   : Yes\r\nFormat settings, ReFrames                : 3 frames\r\nCodec ID                                 : V_MPEG4/ISO/AVC\r\nDuration                                 : 1h 26mn\r\nBit rate mode                            : Variable\r\nBit rate                                 : 5 347 Kbps\r\nMaximum bit rate                         : 40.0 Mbps\r\nWidth                                    : 1 904 pixels\r\nHeight                                   : 1 024 pixels\r\nDisplay aspect ratio                     : 1.85:1\r\nFrame rate mode                          : Constant\r\nFrame rate                               : 29.970 fps\r\nColor space                              : YUV\r\nChroma subsampling                       : 4:2:0\r\nBit depth                                : 8 bits\r\nScan type                                : Progressive\r\nBits/(Pixel*Frame)                       : 0.092\r\nStream size                              : 3.23 GiB (94%)\r\nDefault                                  : Yes\r\nForced                                   : No\r\nColor primaries                          : BT.709\r\nTransfer characteristics                 : BT.709\r\nMatrix coefficients                      : BT.709\r\n\r\nAudio\r\nID                                       : 2\r\nFormat                                   : AC-3\r\nFormat/Info                              : Audio Coding 3\r\nMode extension                           : CM (complete main)\r\nFormat settings, Endianness              : Big\r\nCodec ID                                 : A_AC3\r\nDuration                                 : 1h 26mn\r\nBit rate mode                            : Constant\r\nBit rate                                 : 224 Kbps\r\nChannel(s)                               : 2 channels\r\nChannel positions                        : Front: L R\r\nSampling rate                            : 44.1 KHz\r\nBit depth                                : 16 bits\r\nCompression mode                         : Lossy\r\nStream size                              : 138 MiB (4%)\r\nLanguage                                 : English\r\nDefault                                  : Yes\r\nForced                                   : No",
  "parsed": {
    "xt": "urn:btih:13944f2d2379b376f15f58291cddb5b2d3ac3535",
    "dn": "The Secret Life of Pets 2016 1080p HDRIP x264 AC3 TiTAN",
    "tr": [
      "udp://exodus.desync.com:6969",
      "udp://open.demonii.com:1337",
      "udp://tracker.coppersurfer.tk:6969",
      "udp://tracker.leechers-paradise.org:6969",
      "udp://zer0day.ch:1337"
    ],
    "infoHash": "13944f2d2379b376f15f58291cddb5b2d3ac3535",
    "infoHashBuffer": {
      "type": "Buffer",
      "data": [
        19,
        148,
        79,
        45,
        35,
        121,
        179,
        118,
        241,
        95,
        88,
        41,
        28,
        221,
        181,
        178,
        211,
        172,
        53,
        53
      ]
    },
    "name": "The Secret Life of Pets 2016 1080p HDRIP x264 AC3 TiTAN",
    "announce": [
      "udp://exodus.desync.com:6969",
      "udp://open.demonii.com:1337",
      "udp://tracker.coppersurfer.tk:6969",
      "udp://tracker.leechers-paradise.org:6969",
      "udp://zer0day.ch:1337"
    ],
    "urlList": []
  },
  "previous": 199,
  "peers": 50,
  "last_updated": "2016-12-26T16:56:40.374Z"
}